<svg width="487" height="486" viewBox="0 0 487 486" fill="none" xmlns="http://www.w3.org/2000/svg">
<path d="M206 1.59999C171.9 6.99999 133.1 28.9 98.5 62.1C60.8 98.3 35.9 130.1 20 162.5C4.6 193.9 -1.2 221.1 0.999998 252C4.9 306.8 38.6 364.8 102.4 426.7C119.5 443.4 128 450.4 142.9 460.5C169.8 478.6 191.8 486 219.3 486C256.1 486 286.3 475.5 369 433.9C414.1 411.3 429.6 401.2 447.2 383.4C468.1 362.1 478 344.1 484 316.2C486.7 303.9 486.9 280.4 484.6 265.5C475.4 208.8 439.4 146.8 379.7 85.3C334 38.3 295.1 12.7 255.3 3.39999C241.3 0.0999928 219.9 -0.600007 206 1.59999ZM189 194.9C201.4 220.3 205.9 230.4 205 231C204.1 231.6 204.2 232.4 205.4 234.9C207 237.8 206.9 238 205.3 238C204 238 201.5 234.1 196.2 223.5L189 209H168.5H148L140.8 223.5C136.8 231.5 133 238 132.3 238C130.6 238 130.7 237.5 132.5 234C133.4 232.3 133.6 231 133.1 231C132.5 231 137.3 220.3 143.7 207.2C150 194.2 158.4 177 162.2 169C168.9 155 169.2 154.6 170.5 157C171.2 158.4 179.6 175.4 189 194.9ZM121.5 157.9C126.7 160.3 133.6 167.8 134.9 172.6C136.3 177.6 136.3 186.4 134.9 191.5C132.5 200.4 124 208.3 115.4 209.6L111 210.2V218.9C111 231 110 238 108.4 238C107.2 238 107 231.5 107 200.7C107 180.3 107.3 161.8 107.6 159.7C108.3 156 108.3 156 112.9 156C115.4 156 119.3 156.9 121.5 157.9ZM97 187C97 187.6 93.5 188 88.5 188C80.7 188 80 188.2 80 190C80 191.8 80.7 192 88.5 192C95.4 192 97 192.3 97 193.5C97 194.7 95.4 195 88.5 195H80V216.5C80 237.3 79.9 238 78 238C76.1 238 76 237.3 76 215.6C76 201.7 76.4 192.9 77 192.5C77.6 192.2 78 190.6 78 188.9V186H87.5C93.2 186 97 186.4 97 187ZM220.4 191.2C220.7 194.1 221 200 221 204.2V212H235.9H250.7L251.2 199.5C251.7 187.4 252.2 184.8 253.8 186.4C254.2 186.8 254.7 198.6 254.8 212.6C255.1 234.3 255 238 253.7 238C252.3 238 251 231.7 251 224.2V221H236H221L220.9 225C220.8 227.2 220.6 229.4 220.5 230C220.4 230.5 220.2 232.6 220.1 234.5C220 236.9 219.5 238 218.5 238C217.2 238 217 235 217 216.6C217 195.4 217.6 186 219 186C219.4 186 220 188.4 220.4 191.2ZM272.4 190.6C272.7 193.2 273 202 273 210.2C273 219.8 273.4 224.9 274 224.5C274.5 224.2 281.8 215.5 290.1 205.2C298.4 194.9 305.8 186.4 306.5 186.2C308.4 185.7 309 193 309 216.6C309 235 308.8 238 307.5 238C306.2 238 306 235.2 306 218.4C306 207.6 305.6 199 305.1 199.2C304.6 199.3 297.3 208 288.8 218.5C280.3 228.9 272.6 237.6 271.7 237.8C270.1 238.1 270 236 270 212.1C270 187.7 270.9 179.8 272.4 190.6ZM356 187C356 187.6 352.3 188 347 188C338.7 188 338 188.1 338 190C338 191.9 338.7 192 348 192C356.2 192 358 192.3 358 193.5C358 194.7 356.3 195 349 195H340V216.5C340 234 339.7 238 338.6 238C336.7 238 336 230.7 336 211.2V195H327.5C320.6 195 319 194.7 319 193.5C319 192.3 320.6 192 327.5 192C335.3 192 336 191.8 336 190C336 188.2 335.3 188 327.5 188C322.5 188 319 187.6 319 187C319 186.4 325.8 186 337.5 186C349.2 186 356 186.4 356 187ZM248.4 305.4C255.3 319.6 261 331.5 261 331.7C261 332 260.4 332 259.6 331.7C258.4 331.2 258.5 332 260 335.6C261.8 339.7 261.8 340 260.2 340C259 340 256.4 335.8 251.2 325.5L244 311H223.5H203.1L196.1 325.5C191.6 334.9 188.6 340 187.6 340C186 340 186.5 337.8 189 333C189.9 331.4 189.8 331.2 188.5 331.6C186.4 332.5 186.2 332.9 206.5 291.5L224.1 255.5L229.9 267.5C233.1 274.1 241.4 291.2 248.4 305.4ZM174.1 258C178.8 259.3 185.6 265.2 188.2 270.4C189.8 273.3 190.5 276.9 190.8 283.1C191.3 292.6 189.8 297.6 184.6 303.7C181.5 307.4 172.8 312 168.8 312H166V326C166 339.3 165.9 340 164 340C162 340 162 339.3 162 303.1C162 282.9 162.3 264.2 162.6 261.6C163.3 257.1 163.3 257 166.9 257C168.9 257 172.1 257.5 174.1 258ZM365.1 288.8C372.1 292.4 375.9 298.1 378.4 308.4C381.1 320 379.2 327.6 371.8 334.7C359.2 346.8 337.6 340.7 332.5 323.6C330.2 316.1 330.5 304.6 333.1 299.3C338.9 287.4 353.3 282.6 365.1 288.8ZM421.3 287.1C425.6 288.3 432.4 293.9 434.6 298.2C437 302.8 440 313.2 440 317.1C440 326.8 432 337.6 422.9 340C413.8 342.5 402.1 339 397.1 332.3L395.1 329.5L395 344.7C395 356.9 394.7 360 393.6 360C391.6 360 391 351.1 391 317.4C391 297.8 391.4 287 392 287C392.6 287 393 288.5 393 290.4C393 295 394.7 295.3 399.1 291.6C405.4 286.4 413.1 284.8 421.3 287.1ZM114.1 307.2C121.6 322.1 124.4 327 125.1 325.9C125.7 325.1 130.3 316.1 135.6 305.7C140.8 295.4 145.5 287 146 287C146.6 287 147 296.6 147 313.5C147 336.2 146.8 340 145.5 340C144.3 340 144 336.9 143.8 320.2L143.5 300.5L133.5 320.2C128 331.1 123.3 340 123 340C122.7 340 118.1 331.3 112.8 320.7L103.1 301.5V320.7C103 337.2 102.8 340 101.5 340C100.2 340 100 337 100 318.7C100 294.5 100.6 287 102.6 287C103.4 287 108.4 295.8 114.1 307.2ZM285.1 307.1C290.6 318.2 295.4 327 295.7 326.6C296 326.3 300.7 317.4 306 306.8C311.4 296.2 316.3 287.4 316.9 287.2C317.6 287 318 288.3 318 290.4C318 292.4 318.5 294 319 294C319.6 294 320 302.3 320 317C320 339.3 319.9 340 318 340C316.1 340 316 339.3 315.9 320.7V301.5L305.8 321.5L295.7 341.5L285.6 321L275.5 300.5L275.2 320.2C275 336.9 274.7 340 273.5 340C272.2 340 272 336.2 272 313.5C272 290.6 272.2 287 273.5 287C274.4 287 278.7 294.4 285.1 307.1Z" fill="white"/>
<path d="M160.7 182.5C156.5 191 153 198.5 153 199C153 199.6 158.9 200 168.5 200C180.3 200 184 199.7 183.9 198.7C183.9 198.1 180.4 190.6 176.2 182.2L168.5 167L160.7 182.5Z" fill="white"/>
<path d="M150.7 202.7C150.3 203 150 203.9 150 204.7C150 205.7 153.7 206 168.5 206C178.7 206 187 205.8 187 205.6C187 205.4 186.7 204.5 186.4 203.6C185.9 202.2 183.3 202 168.6 202C159.1 202 151 202.3 150.7 202.7Z" fill="white"/>
<path d="M111 160C111 161.5 111.7 162 113.9 162C118.1 162 123.5 164.6 128.2 168.8C132.3 172.5 132.3 172.5 130.7 169.5C127.5 163.4 119.5 158 113.5 158C111.7 158 111 158.5 111 160Z" fill="white"/>
<path d="M111 183V201H113.8C121.6 200.9 132 191.8 132 184.9C132 179.6 130.5 176.1 126.2 171.6C122.2 167.4 117.5 165 113.5 165H111V183Z" fill="white"/>
<path d="M128.1 196.4C126.1 198.7 116.9 203 113.8 203C111.7 203 111 203.5 111 205C111 207.5 114.7 207.7 119.4 205.5C123 203.8 130.7 196.4 129.8 195.5C129.5 195.2 128.7 195.6 128.1 196.4Z" fill="white"/>
<path d="M221 215.5V218H236H251V215.6V213.2L236 213.1L221 212.9V215.5Z" fill="white"/>
<path d="M289.9 208.7C282 218.4 275 227.3 274.3 228.4C272.8 230.9 272.7 232.3 273.9 231.6C275.3 230.7 303.6 195.7 304.9 193.2C308 187.4 303 192.6 289.9 208.7Z" fill="white"/>
<path d="M216.7 274.6C214.1 279.8 212 284.4 212.1 284.8C212.1 285.2 214.4 281.1 217.1 275.6C219.9 270.2 222 265.6 221.8 265.4C221.6 265.2 219.3 269.3 216.7 274.6Z" fill="white"/>
<path d="M216.2 284C212.2 292.3 209 299.5 209 300C209 300.6 214.9 301 224 301C232.3 301 239 300.8 239 300.6C239 300.1 224.2 269.9 223.7 269.4C223.5 269.2 220.1 275.7 216.2 284Z" fill="white"/>
<path d="M206 304.9C205.5 306 205 307.1 205 307.4C205 307.7 213.5 308 224 308H243L241.8 305.5L240.7 303H223.9C208.3 303 207 303.1 206 304.9Z" fill="white"/>
<path d="M198.2 312.5C195.2 318.7 195.5 319.6 198.6 313.7C200 311 201 308.6 200.8 308.4C200.5 308.2 199.4 310.1 198.2 312.5Z" fill="white"/>
<path d="M165.2 261.2C165.4 263.1 166.3 263.6 170.1 264.1C175.7 264.9 178 266.1 183.1 270.7C187.3 274.5 187.8 274.4 185.6 270.2C182.4 264.1 174.4 259 168 259C165.3 259 164.9 259.3 165.2 261.2Z" fill="white"/>
<path d="M166 284.3V302.3L170.3 301.6C178.7 300.3 187 292.1 187 285C187 277.4 178.6 268.6 169.9 267L166 266.3V284.3Z" fill="white"/>
<path d="M185 295.5C182.4 298.6 174.6 302.9 170.4 303.6C166.5 304.1 166 304.5 166 306.7C166 309.1 166.2 309.2 170.2 308.7C175.5 308 181.6 303.6 184.7 298.2C187.2 294 187.3 292.7 185 295.5Z" fill="white"/>
<path d="M345.2 290.1C340.2 292.6 335.7 297.7 334.2 302.6L333.2 306.1L337.3 301.7C342.5 296.2 346.7 294 353.5 293.3C359.5 292.7 365 294.2 369.8 297.7C371.5 299 373 299.6 373 299.1C373 297.3 365.9 290.9 362.4 289.4C357.5 287.3 350.2 287.7 345.2 290.1Z" fill="white"/>
<path d="M347.5 297.9C343.2 299.8 337.5 305.7 335.9 309.7C332.8 317.9 338.7 327 349.1 330.1C360.2 333.3 373.7 324.5 374.7 313.3C375.1 309.2 374.8 307.9 372.2 304.4C366.6 296.7 356.1 293.9 347.5 297.9Z" fill="white"/>
<path d="M370.5 325.6C366.5 329.7 364.3 331 360.1 332C352.7 333.7 345.7 332.1 340.1 327.4C335.5 323.4 335 323.7 338 328.5C344.3 338.7 359.8 341.1 369.1 333.3C372.3 330.6 376.3 323.6 375.8 321.7C375.6 321 373.2 322.8 370.5 325.6Z" fill="white"/>
<path d="M405.5 289.9C400.5 292.1 395 298.3 395 301.5C395 303.9 395.1 303.9 398.9 300.1C407 292 420 290.8 429.3 297.2C433 299.8 432.7 298.1 428.8 294.2C422.3 288 413.3 286.3 405.5 289.9Z" fill="white"/>
<path d="M408 297.5C400.7 300.8 395 308.8 395 315.6C395 327.1 412.3 334.4 424 328C433 323 437.4 312.1 433.1 305.3C428.3 297.6 416.2 293.9 408 297.5Z" fill="white"/>
<path d="M434.2 321.1C429.4 329.4 418.3 334.3 409.2 332.1C406.6 331.4 402.8 329.8 400.8 328.4C395.8 325.2 396 326.6 401.3 331.7C406.3 336.7 409.4 338 416.1 338C425.3 338 433.7 331.4 436 322.3C436.6 319.8 436.9 317.6 436.8 317.4C436.6 317.3 435.4 318.9 434.2 321.1Z" fill="white"/>
<path d="M103 292.7C103 293.2 107.5 302.7 113.1 314C120.3 328.8 123.4 334 124 333C124.5 332.2 124.5 331.3 124.1 331C123.6 330.7 118.9 321.8 113.6 311.2C104.9 293.8 103 290.5 103 292.7Z" fill="white"/>
<path d="M143 294.2C141.8 296.4 141.8 296.4 143.6 294.8C144.6 293.8 145.1 292.8 144.8 292.4C144.4 292.1 143.6 292.9 143 294.2Z" fill="white"/>
<path d="M274 293C274 293.5 274.5 294 275.1 294C275.6 294 275.8 293.5 275.5 293C275.2 292.4 274.7 292 274.4 292C274.2 292 274 292.4 274 293Z" fill="white"/>
<path d="M305.1 311.9C299.5 323.1 295.2 332.6 295.7 333.1C296.8 334.2 316.5 294.8 315.8 292.9C315.5 292.1 310.7 300.7 305.1 311.9Z" fill="white"/>
</svg>
