<?xml version="1.0" standalone="no"?>
<!DOCTYPE svg PUBLIC "-//W3C//DTD SVG 20010904//EN"
 "http://www.w3.org/TR/2001/REC-SVG-20010904/DTD/svg10.dtd">
<svg version="1.0" xmlns="http://www.w3.org/2000/svg"
 width="500.000000pt" height="500.000000pt" viewBox="0 0 500.000000 500.000000"
 preserveAspectRatio="xMidYMid meet">

<g transform="translate(0.000000,500.000000) scale(0.100000,-0.100000)"
fill="#000000" stroke="none">
<path d="M2080 4984 c-341 -54 -729 -273 -1075 -605 -377 -362 -626 -680 -785
-1004 -154 -314 -212 -586 -190 -895 39 -548 376 -1128 1014 -1747 171 -167
256 -237 405 -338 269 -181 489 -255 764 -255 368 0 670 105 1497 521 451 226
606 327 782 505 209 213 308 393 368 672 27 123 29 358 6 507 -92 567 -452
1187 -1049 1802 -457 470 -846 726 -1244 819 -140 33 -354 40 -493 18z m-170
-1933 c124 -254 169 -355 160 -361 -9 -6 -8 -14 4 -39 16 -29 15 -31 -1 -31
-13 0 -38 39 -91 145 l-72 145 -205 0 -205 0 -72 -145 c-40 -80 -78 -145 -85
-145 -17 0 -16 5 2 40 9 17 11 30 6 30 -6 0 42 107 106 238 63 130 147 302
185 382 67 140 70 144 83 120 7 -14 91 -184 185 -379z m-675 370 c52 -24 121
-99 134 -147 14 -50 14 -138 0 -189 -24 -89 -109 -168 -195 -181 l-44 -6 0
-87 c0 -121 -10 -191 -26 -191 -12 0 -14 65 -14 373 0 204 3 389 6 410 7 37 7
37 53 37 25 0 64 -9 86 -19z m-245 -291 c0 -6 -35 -10 -85 -10 -78 0 -85 -2
-85 -20 0 -18 7 -20 85 -20 69 0 85 -3 85 -15 0 -12 -16 -15 -85 -15 l-85 0 0
-215 c0 -208 -1 -215 -20 -215 -19 0 -20 7 -20 224 0 139 4 227 10 231 6 3 10
19 10 36 l0 29 95 0 c57 0 95 -4 95 -10z m1234 -42 c3 -29 6 -88 6 -130 l0
-78 149 0 148 0 5 125 c5 121 10 147 26 131 4 -4 9 -122 10 -262 3 -217 2
-254 -11 -254 -14 0 -27 63 -27 138 l0 32 -150 0 -150 0 -1 -40 c-1 -22 -3
-44 -4 -50 -1 -5 -3 -26 -4 -45 -1 -24 -6 -35 -16 -35 -13 0 -15 30 -15 214 0
212 6 306 20 306 4 0 10 -24 14 -52z m520 6 c3 -26 6 -114 6 -196 0 -96 4
-147 10 -143 5 3 78 90 161 193 83 103 157 188 164 190 19 5 25 -68 25 -304 0
-184 -2 -214 -15 -214 -13 0 -15 28 -15 196 0 108 -4 194 -9 192 -5 -1 -78
-88 -163 -193 -85 -104 -162 -191 -171 -193 -16 -3 -17 18 -17 257 0 244 9
323 24 215z m836 36 c0 -6 -37 -10 -90 -10 -83 0 -90 -1 -90 -20 0 -19 7 -20
100 -20 82 0 100 -3 100 -15 0 -12 -17 -15 -90 -15 l-90 0 0 -215 c0 -175 -3
-215 -14 -215 -19 0 -26 73 -26 268 l0 162 -85 0 c-69 0 -85 3 -85 15 0 12 16
15 85 15 78 0 85 2 85 20 0 18 -7 20 -85 20 -50 0 -85 4 -85 10 0 6 68 10 185
10 117 0 185 -4 185 -10z m-1076 -1184 c69 -142 126 -261 126 -263 0 -3 -6 -3
-14 0 -12 5 -11 -3 4 -39 18 -41 18 -44 2 -44 -12 0 -38 42 -90 145 l-72 145
-205 0 -204 0 -70 -145 c-45 -94 -75 -145 -85 -145 -16 0 -11 22 14 70 9 16 8
18 -5 14 -21 -9 -23 -13 180 401 l176 360 58 -120 c32 -66 115 -237 185 -379z
m-743 474 c47 -13 115 -72 141 -124 16 -29 23 -65 26 -127 5 -95 -10 -145 -62
-206 -31 -37 -118 -83 -158 -83 l-28 0 0 -140 c0 -133 -1 -140 -20 -140 -20 0
-20 7 -20 369 0 202 3 389 6 415 7 45 7 46 43 46 20 0 52 -5 72 -10z m1910
-308 c70 -36 108 -93 133 -196 27 -116 8 -192 -66 -263 -126 -121 -342 -60
-393 111 -23 75 -20 190 6 243 58 119 202 167 320 105z m562 17 c43 -12 111
-68 133 -111 24 -46 54 -150 54 -189 0 -97 -80 -205 -171 -229 -91 -25 -208
10 -258 77 l-20 28 -1 -152 c0 -122 -3 -153 -14 -153 -20 0 -26 89 -26 426 0
196 4 304 10 304 6 0 10 -15 10 -34 0 -46 17 -49 61 -12 63 52 140 68 222 45z
m-3072 -201 c75 -149 103 -198 110 -187 6 8 52 98 105 202 52 103 99 187 104
187 6 0 10 -96 10 -265 0 -227 -2 -265 -15 -265 -12 0 -15 31 -17 198 l-3 197
-100 -197 c-55 -109 -102 -198 -105 -198 -3 0 -49 87 -102 193 l-97 192 0
-192 c-1 -165 -3 -193 -16 -193 -13 0 -15 30 -15 213 0 242 6 317 26 317 8 0
58 -88 115 -202z m1710 1 c55 -111 103 -199 106 -195 3 3 50 92 103 198 54
106 103 194 109 196 7 2 11 -11 11 -32 0 -20 5 -36 10 -36 6 0 10 -83 10 -230
0 -223 -1 -230 -20 -230 -19 0 -20 7 -21 193 l0 192 -101 -200 -101 -200 -101
205 -101 205 -3 -197 c-2 -167 -5 -198 -17 -198 -13 0 -15 38 -15 265 0 229 2
265 15 265 9 0 52 -74 116 -201z"/>
<path d="M1627 3175 c-42 -85 -77 -160 -77 -165 0 -6 59 -10 155 -10 118 0
155 3 154 13 0 6 -35 81 -77 165 l-77 152 -78 -155z"/>
<path d="M1527 2973 c-4 -3 -7 -12 -7 -20 0 -10 37 -13 185 -13 102 0 185 2
185 4 0 2 -3 11 -6 20 -5 14 -31 16 -178 16 -95 0 -176 -3 -179 -7z"/>
<path d="M1130 3400 c0 -15 7 -20 29 -20 42 0 96 -26 143 -68 41 -37 41 -37
25 -7 -32 61 -112 115 -172 115 -18 0 -25 -5 -25 -20z"/>
<path d="M1130 3170 l0 -180 28 0 c78 1 182 92 182 161 0 53 -15 88 -58 133
-40 42 -87 66 -127 66 l-25 0 0 -180z"/>
<path d="M1301 3036 c-20 -23 -112 -66 -143 -66 -21 0 -28 -5 -28 -20 0 -25
37 -27 84 -5 36 17 113 91 104 100 -3 3 -11 -1 -17 -9z"/>
<path d="M2230 2845 l0 -25 150 0 150 0 0 24 0 24 -150 1 -150 2 0 -26z"/>
<path d="M2919 2913 c-79 -97 -149 -186 -156 -197 -15 -25 -16 -39 -4 -32 14
9 297 359 310 384 31 58 -19 6 -150 -155z"/>
<path d="M2187 2254 c-26 -52 -47 -98 -46 -102 0 -4 23 37 50 92 28 54 49 100
47 102 -2 2 -25 -39 -51 -92z"/>
<path d="M2182 2160 c-40 -83 -72 -155 -72 -160 0 -6 59 -10 150 -10 83 0 150
2 150 4 0 5 -148 307 -153 312 -2 2 -36 -63 -75 -146z"/>
<path d="M2080 1951 c-5 -11 -10 -22 -10 -25 0 -3 85 -6 190 -6 l190 0 -12 25
-11 25 -168 0 c-156 0 -169 -1 -179 -19z"/>
<path d="M2002 1875 c-30 -62 -27 -71 4 -12 14 27 24 51 22 53 -3 2 -14 -17
-26 -41z"/>
<path d="M1672 2388 c2 -19 11 -24 49 -29 56 -8 79 -20 130 -66 42 -38 47 -37
25 5 -32 61 -112 112 -176 112 -27 0 -31 -3 -28 -22z"/>
<path d="M1680 2157 l0 -180 43 7 c84 13 167 95 167 166 0 76 -84 164 -171
180 l-39 7 0 -180z"/>
<path d="M1870 2045 c-26 -31 -104 -74 -146 -81 -39 -5 -44 -9 -44 -31 0 -24
2 -25 42 -20 53 7 114 51 145 105 25 42 26 55 3 27z"/>
<path d="M3472 2099 c-50 -25 -95 -76 -110 -125 l-10 -35 41 44 c52 55 94 77
162 84 60 6 115 -9 163 -44 17 -13 32 -19 32 -14 0 18 -71 82 -106 97 -49 21
-122 17 -172 -7z"/>
<path d="M3495 2021 c-43 -19 -100 -78 -116 -118 -31 -82 28 -173 132 -204
111 -32 246 56 256 168 4 41 1 54 -25 89 -56 77 -161 105 -247 65z"/>
<path d="M3725 1744 c-40 -41 -62 -54 -104 -64 -74 -17 -144 -1 -200 46 -46
40 -51 37 -21 -11 63 -102 218 -126 311 -48 32 27 72 97 67 116 -2 7 -26 -11
-53 -39z"/>
<path d="M4075 2101 c-50 -22 -105 -84 -105 -116 0 -24 1 -24 39 14 81 81 211
93 304 29 37 -26 34 -9 -5 30 -65 62 -155 79 -233 43z"/>
<path d="M4100 2025 c-73 -33 -130 -113 -130 -181 0 -115 173 -188 290 -124
90 50 134 159 91 227 -48 77 -169 114 -251 78z"/>
<path d="M4362 1789 c-48 -83 -159 -132 -250 -110 -26 7 -64 23 -84 37 -50 32
-48 18 5 -33 50 -50 81 -63 148 -63 92 0 176 66 199 157 6 25 9 47 8 49 -2 1
-14 -15 -26 -37z"/>
<path d="M1050 2073 c0 -5 45 -100 101 -213 72 -148 103 -200 109 -190 5 8 5
17 1 20 -5 3 -52 92 -105 198 -87 174 -106 207 -106 185z"/>
<path d="M1450 2058 c-12 -22 -12 -22 6 -6 10 10 15 20 12 24 -4 3 -12 -5 -18
-18z"/>
<path d="M2760 2070 c0 -5 5 -10 11 -10 5 0 7 5 4 10 -3 6 -8 10 -11 10 -2 0
-4 -4 -4 -10z"/>
<path d="M3071 1881 c-56 -112 -99 -207 -94 -212 11 -11 208 383 201 402 -3 8
-51 -78 -107 -190z"/>
</g>
</svg>
